<svg xmlns="http://www.w3.org/2000/svg" viewBox="0 0 33.67 63"><title>Asset 2</title><g id="Layer_2" data-name="Layer 2"><g id="Layer_1-2" data-name="Layer 1"><path d="M33.61,3a1.36,1.36,0,0,0-.86-1,30.7,30.7,0,0,0-10.3-2,18.33,18.33,0,0,0-9.34,2.38h0A11.82,11.82,0,0,0,9.49,5.64,15.18,15.18,0,0,0,7,11.91a36.41,36.41,0,0,0-.52,5.37c-.79,0-1.68,0-2.5,0H1.36a1.36,1.36,0,0,0-1,.39,1.33,1.33,0,0,0-.4,1L.05,27.5a1.4,1.4,0,0,0,1.34,1.39h.94c1.3,0,3.74-.05,5.62,0,.28,6.1.34,15.24.34,22.33,0,3,0,5.59,0,7.47,0,.94,0,1.68,0,2.2v.79a1.31,1.31,0,0,0,.38,1,1.34,1.34,0,0,0,1,.39l11.88-.06a1.29,1.29,0,0,0,.94-.4,1.34,1.34,0,0,0,.39-.95s-.06-7.3-.14-15.18c-.06-6.78-.13-14-.17-17.32l2.42,0h3.77a1.38,1.38,0,0,0,1-.39,1.35,1.35,0,0,0,.4-.95V19.54a1.61,1.61,0,0,0-.39-1.06,1.43,1.43,0,0,0-.95-.51h-.44c-.29,0-.69.12-1.18.12-1.49,0-3.74.05-5.53,0a16.92,16.92,0,0,1,.25-2.38,7,7,0,0,1,.52-1.65,3.51,3.51,0,0,1,.52-.82,2.54,2.54,0,0,1,1-.72,3.81,3.81,0,0,1,1.53-.27A13.83,13.83,0,0,1,30,13.36h.05a.05.05,0,0,0,0,0l.09,0,.13,0h.39l.12,0,.12,0,.12,0,.11-.06.11-.07.1-.08.09-.1.08-.1a1,1,0,0,0,.08-.11l.06-.12,0-.08a.06.06,0,0,1,0,0s0,0,0-.05c.27-.89.73-2.38,1.13-3.95.2-.79.38-1.6.52-2.38A13.77,13.77,0,0,0,33.67,4,6.84,6.84,0,0,0,33.61,3ZM22.4,10.27a5.23,5.23,0,0,0-1.7,1.4,7.79,7.79,0,0,0-1.42,3.17,18.8,18.8,0,0,0-.4,4.17v.48a1.17,1.17,0,0,0,1.29,1.12c1.9.06,5-.12,6.92-.12h.29v5.72c-.69,0-1.56.09-2.46.09-1.42,0-2.9.06-3.84.11a1.36,1.36,0,0,0-1.27,1.38c0,2.28.12,10.75.19,18.63,0,3.94.07,7.74.1,10.55,0,1.37,0,2.5,0,3.3l-9.19,0c0-1.77,0-5.13,0-9.15,0-7.61-.07-17.58-.4-23.73a1.35,1.35,0,0,0-1.29-1.27c-1.81-.06-4.82-.07-6.55-.07l0-6.13H4c1.3,0,2.8,0,3.86-.07a1.35,1.35,0,0,0,1.26-1.3,30.77,30.77,0,0,1,1-8.09,11,11,0,0,1,1.59-3.3,9.2,9.2,0,0,1,2.81-2.52h0a15.68,15.68,0,0,1,8-2A27.1,27.1,0,0,1,31,4.22a11.93,11.93,0,0,1-.18,1.49c-.18,1-.47,2.21-.76,3.29-.14.49-.28,1-.41,1.39a14,14,0,0,0-4.26-.79A6.4,6.4,0,0,0,22.4,10.27Z"/></g></g></svg>