<svg xmlns="http://www.w3.org/2000/svg" viewBox="0 0 61.05 61.05"><defs><style>.cls-1{stroke:#000;stroke-miterlimit:10;stroke-width:0.75px;}</style></defs><title>Asset 5</title><g id="Layer_2" data-name="Layer 2"><g id="Layer_1-2" data-name="Layer 1"><path class="cls-1" d="M.38,52.24a6.33,6.33,0,0,0,.78,3.06A5.87,5.87,0,0,0,3.5,57.62a24.75,24.75,0,0,0,29.43-4.2L53.42,32.93a24.62,24.62,0,0,0,7.26-17.44,24.87,24.87,0,0,0-3.06-12A5.87,5.87,0,0,0,55.3,1.16a6.4,6.4,0,0,0-7.57,1.08L40.29,9.68a8.12,8.12,0,0,0,0,11.49L43,23.83,23.83,43l-2.66-2.66a8.12,8.12,0,0,0-11.49,0h0L2.24,47.74A6.31,6.31,0,0,0,.38,52.24Zm3.23-3.13,7.44-7.44h0a6.19,6.19,0,0,1,8.75,0L23.15,45a1,1,0,0,0,.68.28,1,1,0,0,0,.69-.28L45,24.52a1,1,0,0,0,0-1.37L41.67,19.8a6.18,6.18,0,0,1,0-8.74l7.44-7.45a4.4,4.4,0,0,1,3.13-1.29,4.3,4.3,0,0,1,2.11.54,4,4,0,0,1,1.57,1.58,23,23,0,0,1,2.81,11.05,22.68,22.68,0,0,1-6.68,16.07L31.56,52.05A22.85,22.85,0,0,1,4.44,55.92a4,4,0,0,1-1.58-1.57,4.42,4.42,0,0,1,.75-5.24Z"/></g></g></svg>