<svg xmlns="http://www.w3.org/2000/svg" viewBox="0 0 40.06 74.95"><defs><style>.cls-1{fill:#fff;}</style></defs><title>Asset 3</title><g id="Layer_2" data-name="Layer 2"><g id="Layer_1-2" data-name="Layer 1"><path class="cls-1" d="M40,3.62a1.6,1.6,0,0,0-1-1.24A36.48,36.48,0,0,0,26.7,0,21.74,21.74,0,0,0,15.6,2.84h0a14,14,0,0,0-4.32,3.87,18.23,18.23,0,0,0-3,7.46,44.87,44.87,0,0,0-.62,6.38c-.94,0-2,0-3,0H1.61A1.58,1.58,0,0,0,.47,21,1.61,1.61,0,0,0,0,22.16L.06,32.72a1.66,1.66,0,0,0,1.6,1.65H2.77c1.55,0,4.46-.06,6.69,0,.33,7.25.4,18.13.4,26.56,0,3.56,0,6.66,0,8.89,0,1.11,0,2,0,2.61s0,.94,0,.94a1.6,1.6,0,0,0,.46,1.14,1.56,1.56,0,0,0,1.14.46l14.13-.07a1.59,1.59,0,0,0,1.58-1.6s-.07-8.69-.16-18.07c-.07-8.06-.15-16.62-.2-20.6.87,0,1.89,0,2.87,0h4.49A1.59,1.59,0,0,0,35.73,33l0-9.78A1.92,1.92,0,0,0,35.29,22a1.77,1.77,0,0,0-1.13-.61h-.53c-.34,0-.82.15-1.4.15-1.77,0-4.45.06-6.58,0a18.21,18.21,0,0,1,.3-2.83,8,8,0,0,1,.62-2,4,4,0,0,1,.62-1,3.13,3.13,0,0,1,1.18-.86,4.86,4.86,0,0,1,1.83-.31,16.29,16.29,0,0,1,5.54,1.3h0l.05,0L36,16l.16,0h.31l.15,0a.4.4,0,0,0,.15,0l.14,0,.14-.06.13-.08a.57.57,0,0,0,.13-.08l.12-.1.11-.11.09-.12.09-.13a.61.61,0,0,0,.07-.14.31.31,0,0,0,0-.1l0-.05a.08.08,0,0,1,0,0c.32-1.06.87-2.84,1.34-4.71.24-.93.46-1.9.62-2.83a15.87,15.87,0,0,0,.27-2.64A6.46,6.46,0,0,0,40,3.62ZM26.65,12.21a6.31,6.31,0,0,0-2,1.68,9.33,9.33,0,0,0-1.7,3.76,22.59,22.59,0,0,0-.47,5v.58c0,.85.69,1.3,1.54,1.33,2.26.07,6-.15,8.23-.15h.34v6.82c-.81,0-1.85.1-2.93.1-1.69,0-3.44.07-4.56.13a1.61,1.61,0,0,0-1.51,1.64c0,2.71.14,12.79.22,22.16,0,4.69.09,9.21.12,12.56,0,1.62,0,3,0,3.93L13,71.76c0-2.1,0-6.1,0-10.89,0-9-.08-20.91-.48-28.23A1.59,1.59,0,0,0,11,31.14c-2.15-.08-5.73-.09-7.8-.09l0-7.29H4.71c1.55,0,3.33,0,4.59-.09a1.58,1.58,0,0,0,1.5-1.54A36.63,36.63,0,0,1,12,12.5a13.34,13.34,0,0,1,1.9-3.92,10.85,10.85,0,0,1,3.34-3h0a18.65,18.65,0,0,1,9.5-2.4A32.42,32.42,0,0,1,36.87,5a15.34,15.34,0,0,1-.21,1.78c-.22,1.22-.56,2.62-.92,3.9-.16.59-.32,1.15-.47,1.66a16.93,16.93,0,0,0-5.07-.94A7.69,7.69,0,0,0,26.65,12.21Z"/></g></g></svg>