<svg xmlns="http://www.w3.org/2000/svg" viewBox="0 0 20.31 20.31"><defs><style>.cls-1{fill:#fff;stroke:#eff0f1;stroke-miterlimit:10;stroke-width:0.5px;}</style></defs><title>Asset 5</title><g id="Layer_2" data-name="Layer 2"><g id="Content"><path class="cls-1" d="M.25,17.29a2.06,2.06,0,0,0,.26,1,2,2,0,0,0,.77.76,8.13,8.13,0,0,0,9.67-1.38l6.73-6.73a8.13,8.13,0,0,0,1.38-9.67,2,2,0,0,0-.76-.77,2.06,2.06,0,0,0-1-.26,2.09,2.09,0,0,0-1.48.61L13.36,3.31a2.67,2.67,0,0,0,0,3.78l.87.87L8,14.24l-.87-.87a2.67,2.67,0,0,0-3.78,0h0L.86,15.81A2.09,2.09,0,0,0,.25,17.29Zm1.06-1,2.45-2.45h0a2,2,0,0,1,2.87,0l1.1,1.1a.32.32,0,0,0,.45,0l6.73-6.73a.32.32,0,0,0,0-.45l-1.1-1.1a2,2,0,0,1,0-2.87l2.45-2.45a1.45,1.45,0,0,1,1-.42,1.42,1.42,0,0,1,.69.18,1.31,1.31,0,0,1,.51.52,7.49,7.49,0,0,1-1.27,8.91l-6.73,6.73A7.49,7.49,0,0,1,1.58,18.5,1.32,1.32,0,0,1,1.07,18a1.42,1.42,0,0,1-.18-.69A1.45,1.45,0,0,1,1.31,16.26Z"/></g></g></svg>